<mxfile host="Electron" agent="Mozilla/5.0 (Windows NT 10.0; Win64; x64) AppleWebKit/537.36 (KHTML, like Gecko) draw.io/24.7.5 Chrome/126.0.6478.183 Electron/31.3.0 Safari/537.36" version="24.7.5">
  <diagram name="PÃ¡gina-1" id="xMSeZ65pajrrbG4VMxLd">
    <mxGraphModel dx="880" dy="532" grid="1" gridSize="10" guides="1" tooltips="1" connect="1" arrows="1" fold="1" page="1" pageScale="1" pageWidth="827" pageHeight="1169" math="0" shadow="0">
      <root>
        <mxCell id="0" />
        <mxCell id="1" parent="0" />
        <mxCell id="5XJhCrJHwZWSJV5f-XoP-1" value="" style="shape=image;verticalLabelPosition=bottom;labelBackgroundColor=default;verticalAlign=top;aspect=fixed;imageAspect=0;image=https://files.seeedstudio.com/wiki/Grove_LCD_RGB_Backlight/images/intro.jpg;" vertex="1" parent="1">
          <mxGeometry x="90" y="306" width="240" height="180" as="geometry" />
        </mxCell>
        <mxCell id="5XJhCrJHwZWSJV5f-XoP-3" value="" style="shape=image;verticalLabelPosition=bottom;labelBackgroundColor=default;verticalAlign=top;aspect=fixed;imageAspect=0;image=https://s.alicdn.com/@sc04/kf/HTB1CW9VefWG3KVjSZFgq6zTspXaj.jpg_720x720q50.jpg;" vertex="1" parent="1">
          <mxGeometry x="91" y="20" width="238" height="238.67" as="geometry" />
        </mxCell>
        <mxCell id="5XJhCrJHwZWSJV5f-XoP-6" value="" style="shape=image;verticalLabelPosition=bottom;labelBackgroundColor=default;verticalAlign=top;aspect=fixed;imageAspect=0;image=data:image/png,iVBORw0KGgoAAAANSUhEUgAAAbcAAADECAIAAACTNPhnAAAgAElEQVR4Ae2dz28cx5XH9RcsdoE95NaEvZaUUIwDOaCIKJaC1RILMwhEC6YiehnC2o0gwhSUHxAUWYBJjKXNQdBiEOQQmSAECZsFJM3FCx2yF2tBLOSDwAA5GPaB8iU+70G3AHvQ4lXVe/WquuZXz0yze+ZLCJru6qpXrz5V9e1XPTM1B76BPxAAARAAgfYEDkzjDwRAAARAoD2BAyKg09PTB659jn9DJzA9PS2QcQACIFA7AoFKZvgbAQGoZO1mBRwGAU0AKjkCXQxNQiX1gMMxCNSOAFQylLQRnEElazcr4DAIaAJQyRHoYmgSKqkHHI5BoHYEoJKhpI3gDCpZu1kBh0FAE4BKjkAXQ5NQST3gcAwCtSMAlQwlbQRnUMnazQo4DAKaQCGVnJo696qXk/nXpub9GY5iAlBJPeBwDAK1I1BEJVf/Yfrr86+tOjV45dNffufT78bSgHMhAJWs3ayAwyCgCRRRySyb+t2JV+demfrpoakzU1N3f6ACS9EGHDABqKQecDgGgdoRKKKSv/jB4T/9/OjXH7zh/v18+pPZqTkWhS6vHz3d++xmKs/Npy/2HvCFm5+9ePny5Yt0Ts7U8fXB827FH+29fPE06Ur3sicvb/3353/+37+8+PqPf/jN5e939AQqWbtZAYdBQBPoWyV/9cPpP71z6NMLr7NKHv3y/KE/vDP96fenOmoFX+xJJR/stdEvtrK/r+89eP6Xl/7vL3uP3uvgEFRSDzgcg0DtCPSrkq9++uO/M2Hj1N2V73z9wRtfLb1qT3+/ePAXOal48PzF00dPKSx8+fLlcxMpskraaJHTb3Kml3uP9HGWPdqzpV++dJEm2fyMEk3Ovacm6iTjH1kbL55+RH7c/GzPHuQtODfZEzFobIZlcy2ihO3P2SV+/b/Pt5I5TSJUsnazAg6DgCbQt0r+z8WD6zOvPXv3tZ8e++bXH7z+hzemfv/jb/7m0NSjHx/6VU4pHjx/yata0r69R1nG2iR5SaRI1/SKm2NJEj4njqSqRmfJphVcKuKW1b6iR3v2qlPJlAVXNXviDX709IWJYb3Cipfq4O3//DOro7z++ZN3VI7wECqpBxyOQaB2BPpVyanf//PRL3/0yk9fy7I3Dn31wbc/eT07c3Dq5g9nvnrnlVAc6IwVkI5vfvaCnjOyNmXZAx8lPkqrpCvi7DrpVDa9sN787AVJMP092DMaapUuacHZY08Cg8/pSWVnlUQsWbtRDodBYBAC/apkNvf6oS+vHf3ynw598i49mvzq3UOfrLz+9S+/9bvXnPjoFyVAkUrepLDNLY2twHnJI6VzMZ0RVmexMiqZ4bnkIEMOZUGgZgT6Vsksy859/1tfyRvcH7zx9bWZT17X2uiP1ZvFD+gd5Y9kxf1gzy2leSXex4rbyatepLeLJc3DymjNzgJdOJbMsuzk5d/+1x/xHnfNBjvcBYFCBIqoJAnldw89sx8GWv/m3W95WYyOHjx/sffcvXnjVsSsTfzuDWWwl2yKOebnkmad7h7+8bveKj714WdblUxYGIZKRu3seIrnkoVGJgqBQFUIFFRJkoWpqdVDXb6bqBSto5CM9UWoZFUGO/wAgUIEBlDJHqQNKpllGVSy0MhEIRCoCoHRqmQPQjr+WaCSVRns8AMEChGASo5cpqGShUYmCoFAVQhAJaGSVRmL8AMEqkkAKgmVrObIhFcgUBUCUEmoZFXGIvwAgWoSgEpCJas5MuEVCFSFAFQSKlmVsQg/QKCaBKCSZajkNP5AAARqSwAqOXKVRAUgAAK1JgCVrHX3wXkQAIGRE4BKjhwxKgABEKg1AahkrbsPzteBAH6/vg691MFHqGQHOLgEAkMggN+vHwLEfTUxHJVcbzbXCzTjUvMh/zUvReUP//Dd5RNRmpy+3WhuLmbZYuPuQyr4duNeofqzLFtvPrxHpnr/O7L87tLhdtmdY+0umwrvNqL6Dv9oefnNDkVGeamzw5eaD3PeWm8WN5uNtzs6dqmZA9tLn3awudi4W7SbO1h1l/o3/u3l5XfaDoSwwkF+v77t3FrcvCezZnHz3sOH/Y7k0Mf2fe3yvd2497ANf1M2NDdWZ/usktLNeagnLjXvNdfTQhnN7QFUMl9vt5TDS5vb25tthDJyLGFrvZnXnTfXm3eb6/silG0dpjvQw2Yz4a1pVCGVzPro0wS6/oUsYaRdUv/GDy81trYbPQjlQL9fn/WikqlB1a6hSO+fQGGVXOc4kG4vrifpbmP/3D3H3uIePjQRX5ZlHDy6KONSs4NKZln7ScVz29fbXGeH7pkYhwZ9g26w5jRX773NBvnfXJfZzsXlhswJdxs5qu2Fkh0zQapCIWTa6U4HoQyc5/A5yxY3793bXBTCfJuXhlPrKMomLyyTbL15r3GJ+8h2kXfYyCJl1vFC2+kn3KRPbTnxp9nMx5IEsq1QJjyxbktHNOlekuuMGDUtD9yfG11qmBGBt2kcugHgmitttwNVTm11gvReXHkPQtnf79eTY+t0f6I/WzurpAwhky6cHzZ/zfmt83HzqcmbZrBfkoYkxkbm+ccWuNXOEzFILtoloC/LecfrtZhK+rlqaXBPMhu72nq7cU/HTSris4PV97TOxjbsa3pSca94lZQOcwsH8tBpca5eM7HdfPOz3dVLI8noPo+A0B8+ayOUzrGIjzrtsK5JCmXeeUc11i83/81TCNtwGuwW7KWmnXE+RT2sMM8ujIDaFbSqkQSoTdc4bjR1HUkio047PMro1qfccYa1t6OMcy9k/qmLS1KoJX9KJVmDFht3rRa7fjfPRNxNhZ/kqLGkKnaHXYSyv9+vNyPT1U6zw45EBZgq5UcZasUt3ZRoPnW6s+Ab4kcCjw1WyYQFbrSoJBuUCc7zkXOO22shlRQ6TENUkujbP+oYIs49RLEPX6NXHUXygGBz4evih9vbH/xjkMa94lXSj6R1Iwl+0Cfq5XFGk0yer9Gksn8u3JAQLKjanxxZb/7HrX/x53RkHYv4BKcyoMOC9uz0h9tb13RTE86bKFL5ppDTjT1oOEOW8c3zn0NRnhveCCHwytjWW8vNxrPSkuBUQZYMctC+T233SUZ96psml0nIvLdGptWpu3OkVFKemfIAEON5FHLJVxscfXu9+e+3/jlIkpNX+/r9elFAKu+aJnNLB8kUUidUMqRhm8+3zy5jIzl0VVlz+zCzTCUuNprmITvPR2n2mB0MUyX9JNHxiFkwNi+5FWIan84f5jhxqbn9bz87FT0l517pUSVlSjjbagLzJPGzMRgEd0kyQo/s2eGlD7e3P1o+El0bRCXfXG9uN3/290FTPVJVkZFOq3cSCsmc8VM6mEXx+ObucCR981U96feabIZBVLJjn0ae6FPfNO9kqAusLO6668q+VdLfco2hVL3iweGlD7e2G+figcDX+/v9+g4q6UcCT5agf+29IaRhmx+OZ9e0oKxNSw1dVRYqab5iPj09zV3b9VWF5SavVSsa0eY5RRwbWlUiuYzGn6vIr6rCmtPTSUK24Hmo735TiRrZ+XrzKumHF/mi3r0lO6FTWZa1kUjvWMRH2Wy34k5JJNWbd9666hwWEZEafcPzM0FxZpecSlLx+F5C1XeJJUmVdJ+q1qm6An499Kn2RNoVLOeVRZWBUtWp+KYWlff4ObU0lm+Twi2PQi6pau1hF4mkTH39fj11N8fCDFDWAfHkCvrXlUo0Xymdb0hQVqtkCiALtHgiEwSxZG5IBAl+fUqMfUxn1qz3mvT2tJlCdg2rJMwmmKnl1zbuelADTaffXPlhEFpxBje3Vb3Nplvr++Hijap1q0nMqyQ1wbnaNA/4+VTPWFu7kchf/6TLm+8hHyN2xn7y3RuSyN+2aSoFfY4ZQfPTwM4ivmqQ97Dibjadtdxzd2mxbnI3lXTLf9s0WgaKleS7N730qbJhZqOQvNvm3RvJYPXan6rJbN8Pudto+Hdv3MexWCUdZ4NFGmFReHHh8WdejUT+62p6IOicvf9+PcWSvofsO1VubslscpPLLsndezyqm3LN71Ml7d3IjjgHECpZaMWth8Cojg8vrV1MS+SoauzR7omfvN9GIns0kMt2+J2L5TRVTZicE2UkVLZPCzX+zZ+s9yCR1nSPv18frLgLOYVCoyBQWZUcRWNhEwRAAAT6JgCV7BsZCoAACEwUAajkRHU3GgsCINA3Aahk38hQAARAYKIIHPgr/uvnk0AThQiNBQEQmGgCB/6G/6CSEz0Q0HgQAIE2BA78Lf9BJdsgQjIIgMBEEyjpueSRhSuXrzYuL89PNGw0HgRAoIYEylDJueXG+YWjJJRQyRoOEbgMAhNOoAyVtIihkhM+1NB8EKgpAahkTTsOboMACJREACpZEmhUAwIgUFMCUMmadhzcBgEQKIkAVLIk0KgGBECgpgTKUEn3MaCrDfow0NXG0vGasoLbIAACk0igDJWcRK5oMwiAwLgQgEqOS0+iHSAAAqMhAJUcDVdYBQEQGBcCUMlx6Um0AwRAYDQEoJKj4QqrIAAC40IAKjkuPYl2gAAIjIYAVHI0XGEVBEBgXAhAJcelJ9EOEACB0RAoRyWPzq8N5SPl39j78sBL+vfXD0aDo5jVlTs7u+5vZ2vV2fCJrY3Y7GZrN58YZ9LnFW24dhHHIDCuBEpRyeNr5xeOEsHja5evrs0VZ/mNvYrpY9yUzdbuk60VSt1oycHubmszzNi3StrilW9+2EqcgcB4EChFJT2q+aVhq+RGi6O4O0adVrd2WltbT2yiCdhWt3ZU5LbR8ppFZZ2WGRcppypIaStsapdtkPxtuUp95GibSPFjLkj0NXr7Yi2L/A8tUFEViEIl/UjCEQiURqBclTy+dnnt3JHijYtlYuXOzo4VRyNnFLIZJbKx20Zr1171OkWi5HUnVEl1SULCRNBHhVylko1Cx0hepZHkhVmGy0GWsdmE/9pDzsa24uZzOl5BAARGSKBElZw5d/7qlfmZQRoTyYQK9IxGOZXk8NBrkMiNHOS92OSg1MqdNWKjPzZoCikx1YpmDZIRr8I2FPWSKlecGyn/jeCKytsDdjZqPifjFQRAYJQEylJJksjBdwOKZGJl60m85qVYkkXNqyRFmiRRG61cfoHbQUADrVQqSemifNaQChjtal2ua/teJVP+0EMD4yw3hH2Mms/JeAUBEBglgXJUcn5pCBKZZVksE+FTPMMprZLZyp2d1qa8o+KI5lbcKc3yea3geZVM1B6twUUiM/soQCy4iDNhgaozmr7Z4ocJzoN88+UCDkAABEZHoAyVnFt2HwOy+0u697uLtClWyeDdFRvWtVFJ+7wy0p1QJc3jQrvc5iePpGL8x2X5CeSuf+fHJ0n0l1q/c7bWho8r9aLba6qpNy/Z+eYXgYgyIAACfREoQyX7cqhj5irIhI8lO7o6iotVaP4o2gWbIFBpArVTyX3/VPm+qCQ+VV7pWQTnxptAvVRyvPsCrQMBEKgiAahkFXsFPoEACFSHAFSyOn0BT0AABKpIACpZxV6BTyAAAtUhAJWsTl/AExAAgSoSgEpWsVf2wyf65CZ/JnQ/6kedIFBVAqWoJG2YNpT9JXMUFx+f3f7i7PYXCxffy10LEmauf3FyMUihk7n7C6b42e3HA32/PGe4hgkplbRfzaTP1dMn3tVn7P0n3n2i/1B8DVsPl0GgPYFSVFKqp29zD7K/pBgKDg5efFZMJdPSGdie6BP6aGi0M6bl4b+IKV/6pC8WpTNPNEI0fhwIlKuSA+2cduPk7fuz1ylyPLv9bFbt5Ruq5Huzt22eL87evn8wyzKON23UqcLG92ZvB3ZUTg4tFx+fvX6fDVIi1XX9MUWgLp1zFh0M/LVFtdr13250IRtt0nGHt7R0O8WRgm3xFyhZnvz3HfMpfl+OnH3ayc38hSvu1GYippkUP+Yix7aSWpQMyoFARQiUpJJHFq6YRfcgO6fdOCkr68XHTgENxVAlPVidHoWNM05tnZ5SKEqrb5Y8sU8K65TUWjt48RnprFmqn1zM6axUzrrjvgWe0xSbMdy1yMZiCW0iJXXfEJc9hyjNiRp/dV3pFGfzXxgXzxL2c87IdpnOfVFP1vR8e7hGqQcHIDAuBEpSSYdroC0mb5wUFcv0sYnv1HNJrYCyEo9U0vgTahyFjTe4W9l+kEgXnfLO3V+gQDW0wIV7fvWhn1UjGwBaJeJgkIwp+ZNjSlPbmNtcTtTMi4lDgz3fnF95+/aCkmyXkNiYzl6he4CuPfVM09WGFxCoPYFyVTKjnwlbOl6MGiuXe9eF4z5RLmuVoj93qUMsafKGGhcIItcVJFKhXlWyp1iybVgnmie6yaJJemSOkyqplUtB7k0r+1BJ0mp5A8dofZualRM4BIG6EihXJQd694aVy0iVivtYuWwXyGKZ4k3/3vfMdX/MfRWqpFpx07Janmn6AJPK9aqSXEfn1+QDPikisuVjSb/vb14ljXS5p5ZiQw4S+cW+zRSdml3pRArFjjnw795QpUFYGWbEGQiMAYEyVJIfSjYG+wFFUj33DoyVMCuXkrhtP+sj7948ntXvfSc+9BOqZGCNA9XCsWSvQ0Mvum08xo/+aNnsIjSVJLKVUD3/6zu896X/mI48xDSyxitzZ19no1rd+9pxqOvd6LiNZq9NRz4QqAmBMlRySCh8LDkkg7Ux42PJ2rgMR0FgfAhAJWvQl1DJGnQSXBxfAjVSyfHtBLQMBECgwgSgkhXuHLgGAiBQAQJQyQp0AlwAARCoMAGoZIU7B66BAAhUgABUsgKdABdAAAQqTAAqWeHOgWsgAAIVIFCiSppdJs8vHC3a6lF9XlJ/kbGob0XLqS8y8me5M9mhh3e40MaTHybXGXAMAiAwZAKlqeT80tUrS8tXoJLpDvRfPVzZemK/EpPcQgIqmeaHVBAYHYGSVHJuuXF+4eiRhUFVcpY2LtP7S8r3EeVr2j5Fdlcz0eJ99wVH/naj2k1Syhbm7L9oKCGh+toff/XwydYWb+S4tRrWpb4ZLRfUF6u9ffnaYhxyep0lA/ggumDEAQgMSKAUleTNdwdWSZYz3tJC7WFB4hj9ZoMspd2mkAaV20It3NtCNliLaPpvLptvPosC5rPxJdksJx/0kTG3UaPSRBZT+YK22CZltGbJqNp8lzZM4z0lM/tDC0aHlTLmaxezOAABEOiPQAkqSWvtefOzMgOrJG9C4faXDLarEE3M7y8pl4SNTtHHkqGfg0hLrd7Z6E9rn1YufWyqokhQZ9Z77ejM7pi1Ndy2QvbclYN+moG8IAACSQKjV0n102DuN8LWzh1J+tIlUb17k9oE14ldan/JvA7qFH0cuRDpHweM+Vxuc53ogtl8bHfXyZ8Su3B1bEr5yNFtLin77pjVM2+461WSo0tdp3umSb8AEa3odS4cgwAI9ENg9CqpvBlWLEkraLPto1px075qtOLmxXim9pdM6KBkMzuqtVtxK987HaoVcSIbCRvtReZVkiLBSFeVbtJVL5G0pNZLb/dcUuXXVa7c2Wltyi926Ss4BgEQKEigXioZ7y9ppdBuOslKJ+/e+P0lEypJP8ZgrN2+P6O3oSyIUQWdVuBIxfjPSV4uT/DbrayauiAZMOn8gSFSQNZXvej2Qa4pngozCzYMxUAABEpVycnG7QVusjmg9SBQMwJQydI6DCpZGmpUBALDJACVHCZN2AIBEBg/AlDJ8etTtAgEQGCYBKCSw6QJWyAAAuNHACo5fn2KFoEACAyTAFRymDRhCwRAYPwIlKKS+us3Bb94M37k0SIQAIF6EChLJZfn68EDXoIACIBASAAqGfLAGQiAAAiEBMpSyasNu9XF0vGwfpyBAAiAQLUJlKKSgmDm3HneRU3ScAACIAACVSZQrkpmR+fX3F6TVYYC30AABEBACJSrkvRm99qcVI4DEAABEKg8gTJU8sjCFbf/LiSy8gMCDoIACEQEylDJqEqcggAIgECNCEAla9RZcBUEQGAfCEAl9wE6qgQBEKgRAahkjToLroIACOwDAajkPkBHlSAAAjUiAJWsUWfBVRAAgX0gAJXcB+ioEgRAoEYEoJI16iy4CgIgsA8ESlPJ+SW34cXQv3tDv6zNP8a9DwRRJQiAwHgTKEcl55eGsMkFqeHZ7S/Obj+eCfokVMm5+wu37x8MMnQ5OXjxGUS2CyNcBoEJJlCGSh5ZuHJ+4eiQIN84GatkaBgqGfLAGQiAwIAEylDJueXG0sK583bFPeim5aFKLj420aVacRuVnL2ejDpDVlz27DYXn7u/QLGqD1cPXnx28iInXr/hyvuCz2axdUcIFWcgMH4ESlDJo/Nrjcvu527oeLCNeEOVNB0SLJmN0p1cpAsHLz47K9IWdR1lcyt3Lq4sLz4+a5btZMFlo3W9Mfve7O0exHGztav/WhtR/TgFARCoC4ESVDKjWJK3KB949a20jBmzzJlzveLWx5zZvuoi7thHiCacZJWUR5ZSZMYEqlaIQ6s4AwEQGEMCZagk7ZzmFtqlxJLy7s3i43axpEieDTlJClOZdbaZ67wwN8Ogi1YilhzDyYImTSiBMlQyyyictFtMDvw2Th+xZKRrQQ/zmjozK3QTMN44uR0vpZVKdr4a2MYJCIDAOBEoSSWHgezGSffWSrAitu/e2P9pFezfgfmiXSBpnOHPFd2+PyOfBFKLbrvQNs8l7fs59qFklmXajegzScNoJWyAAAhUjECNVHIfyKlYch9qR5UgAAJVIDD+KmkfIOqQk9+27s4fKtmdEXKAwLgTGH+VHPceRPtAAARGSwAqOVq+sA4CIFB3ArVRye9973t1Zw3/QQAE6kgAKlnHXoPPIAAC5RGASpbHurSajl1bOnO639oOnrq1tHqhr92U2ldx+sT7H5841v56X1emL7z1/q3Z6b7KDD/zUPkM372hWDx46tZbp7A1QY5lCSppvsftNpekz5bLtxVzznRKqNmKe252dSQTe+ZMN/UhTbnm9pabvvBWz8IXqcDMmY+X3v94KZKnXvW3kEqS56bSSOJDlexOoNMwKn4t4tOPobnZVQuzW9/1Y3TAvG0wkqtDu70N6GJ1ipegkrqxR+fXrsyH20Pqyx2OoZIGTpvBLeDCUd6PSooJdZDT+l5VUtno97BbFd0I9Fvf6PN3a9HoPUjU0Bajvssmyk1kUrkqeXyNv9DdN+y+VPLYtTgIiuubm129NnvqlgmX+OZJpYJ7Po2kM5T41qkLJ97/mBekvYQGRl9OOYPu5pyzT18iZx+WJADMEvZVNvY2bpE5j2TRnM66qNAFmGp6nD7hKqXQj9oeB55aJTlPiCjvhbjqQ5LpC2+ducDxFMe5+ZI2JdSUfEhL/p9yUScvD6khXXszC2iYSP/YNdXk0yeiwNl7yG1XfGbO3Jrl/mU3fAF9FC9j826oHnf+UJ5rJygCde2Kh5DxJLIspwztY3nwoqHZRBkGpr+CdY9c0q2Y6OMyVbJ4IJll2fBVksdQMFXsYHDyQaNt9cJBp7k+ked/h3lllM6uHBM3Zy1PsWqoMcr2lYfqamLcyjxx18wa1npLk8H4oyyIGya7mb3hc0mtkiZPKGEJDzhJ1ZKRPPFjypkzH3fWlCxRReCG6xSqiPnQAZtNtIKbqdzgWpTlRL3cGPsaWvZuJPqXC6r7or8JJdzg/OauSXxcHjeKXLcqB1xvHrtmYAYjUzo6yzKh7b0lRSZNdB1EHsYjUFvwnk3yUYkqeXyNd5ksArwvlexegZoeMvjM0ORwkoaOH0mkL3YscljhQip7E/bRH9+9lX0el3boa/uZCyL0nTxhXyuOPs63MqGSEv5wM5UFlg9riDMos7oVJjkvJV4IdCsYXc5y7KGqzB3mqxCAJofyX2oJGyKVctjrhCDRQIrlrWpTbNj5DaKwuHIjVbtql1Th0kI7NpFUjL11Kkkd5/hbCyRenIcOzpx2Wn/s2lur14zwUROUYxnfDMJEUyXXGEskXUx0gfN9Ql9KU8lB90wbuUqS0tkJw4LIY8sNGlHJ1MCKh4/WF1swYZ8LWZG1szQx5fS418dc3L92mpA89JWFsK7E7NWtMLWwEV9lmyNVi4klWaxjD/PFE1UEbijLkh42hGymaCcaaAJS8u30iegto7xjYXHlRr72oHDc5NAOZVUBncvs8rgG2sTYTubAzpy6NnvswolTp2dX1a3dusAwlbfON0qhBxeJe0OioqBBk3dSlkoOFkgWWXF3fH7Hd2nqcD8iXRFz01YDzg01NxlkFdNxsMgENnPAxQWxfW1BxnHevl8BmcCN1/u6NB9HM1Cdill9EKy2VGY2p1phk9Tan/OkX6U5dFlZ7j4DeWIru4Eb3rJf6uZ1ilTSP2qwi0rlhjKe2SeMnaja3GFx74ZbZGiTwXHc5NAOZfVU+dGByxOopFmLRHdoaviJU0blV2/Zzzb40aJuFcpb55tLIYaxUOYzB+2ZwJNyVHLQQLJflbRr507RgZp4Mmp58Wjeq2mrkibS5PURh0i5kWPDQ5uNR3bOfrAG96bUotslcsqZ091GsFcHckk/QxAanCjNDLLZpZyZYGp9x01Q6e1khZdytu1mBgphee6W40UJzMfWa+J6jZHeyrCPQdgxmd55lfTWgmZ6yMoDqlcaqNLlkIm5eg1J1RGp2qVsvsmKBueSZtJ7Ne1W3OF7ffYeYAqyP/xOlFjjJ+/y7Ijrs48sXQ8a7L43qbEdaSgjk3JYjkoOgWZ/K24aKL7jh1B9fUxglPfZV3Gs12fx8co+wROnQ0eOoUqaeyM/YezQ9PG9lFi0jm9jB2iZez9EouwBTI1HUdww0v04hiqZbihSQQAEQKAQAahkIWwoBAIgMDEEoJIT09VoKAiAQCECUMlC2FAIBEBgYghAJSemq9FQEACBQgSgkoWwjbrQZmt3t7Ux6lpgvxQCK3d2dp9srZRSFyoZBYFyVHJ+SfaXXJ4v1oz+PsnAokEAAAdOSURBVC9ZrI5OpVa2nuxsrXbKEV9b3drpY26E9vtRyY3WbmvTVb7R2uW/Pr2NvR/qeRqFcpbuCOq00x1CZVN4SYn4z9BQ2TpYW93yxZS1HhpP1OPbGPUa/e3cCSSxq0qu3NmJihgHOlWhZZeaGjpvG5+yqVombQ/LqhzmkBsVVRFnG+vzMlRybrlxfuGowVh8W6DJUsnex5wSoPxs6d3MaHMqJ7kicjacxkoUOt0kJNvK1hNnwUhkpFmSLaOr0UV2IlOObbQifyRT8sDbjy63kbwoV3DapkiuCoXFN2p1a6e1QVndnZKwtDbpnhPiDWo09yR3H/Wmoix0urL1xLLztBO5xj2pDJU8snDF7QY0c+781bViO8b3rpJmztibukwO6mOXxGFXlr9Jyt1VzSp7WzZlO0RnPpcZmr46W6lJVIN+0wcivuSutS9lxflMx1k8GdzAVNOD5kUc7VJFW9x2NigNd80MCvoZK9k6xxq9zBAlRi77ZisXmyg+NDll2kcV+Gw8vZOZg2xt9UI55klKw3eVDz7RYhT7pr8UIg+QHOfuVRl8oh1Vd1ZMkS0XiBrzXMwOH/v0JVxtZBstY3OjZTtd/HG4uqhkPAJ5bESw1WnYLnVhAg7LUEnCeHzt8tVGKTunxcPFDlUWF1YENT14sqmCPIf5kr2p5jSIx0d6AKkqTMbQvhmW7e2rzIFksP+uapWNfWb1N97S3HZuOyfpTsBTgoso/3kqKueVk9zgfl+VNVtU1Si2VFtsqBOuWzmfZGNxlBbxTS5ecQcKxWbsKxchNWIqKgfXJVX4a+4SyVlYMNG0sPlevxR/7ibdv1y7uNraoODXKGdr00R5SuyibvK1eJ/9ETtJDHfubPmbts8SHTHtKHkyTktRSZJICiEpqBx5LGnu7SwNphOjGzOpBg0p/dfaYHHhVJpaLBlkxR+rsjw/bKDBZ27khHPDTHzO4Qa3t6nts8+cmeIROTYnHA7zWDcleMqZE7asZpHzKkhhy+IqH6g22kkZP4Jz1nRc1FmMwqupOczOGNOpDLZO35suQgwljKwQH28tkg/xnA64vbaAMsjDwJAPOLvy7IbvGXchkVnVElTEXaaKcMeRMd8EOtts7dxZsa0z8aOshV290Ut7gJTR1LjBAXtYUWTInOZvBqlcY5tWgkoGGwKpZ5T9Me19xW3saq1MDAI1LtmNQD5soh6y+piLRK+RVoZzIxj0w1HJsF2BWLC3+UYFKd6CXbit3NmxQXeCT9TYvk5jFMlnhd4Zc89Qq92gLs7mw2QSBHnUQJdDldRSGFgKVZJukyR5Nryyb7+4ulI06NJW6s3rROaw+eoOFIb55Bx3HB1zS43TpmusMpr/Q5txu0zhts8ZjOZS9Gxvt8HIyVsiP3KPRxLZxjipBJXMlDIGitkX1j5VkmzzhKGDeMQkRkYw2axvUtCMbD8V23qux25chdg3YYiJQdrb1zNELXbIJrsR6J1rLwedPNlyecySzcU/1CgJ8ShU2eBH9SbIYlttG9v7BY3FlqKG8Cx1dnyTA8fiWiSbuRGapuj83OmSLanIbFQ5xn3haZtONxWQIjtoXNLZ11XbS91UkruGDXFkZ3VZX5UBY7Jutux7Mru7OzvmIbvTOGVHH3JzfJofdpTm+YRxYpjLRJ1+kHhjk3VUhkpmmf8kEL/Z3TflXlXSTD+3XhIJMLfDKNHMAZfmBpwNBk1atPgyCsLylPPdjKzQlMkj6dYa17izdYfX0Oytsi+FjEHbBM7m7/9B0CEOGeFwjhhv8yppxz07qxbSqenhskVyJtX1fKD8903QiSRBquG+4/JV+OmtFV8VlliSve9gLfbBVMfDQD+w476T55feDQGn8lDVNKi0fS4aZqNuUsKqVdLou22EeSIU3+nzbEyKRsGPO+mC+OnKcTNDEQxzRf7Ht4o2HoxdcjkqOQRsvarkEKqqg4mU/NXBb/jo5dUqV4/aZ1Su7X0aWEdKACo5UrwwDgIxgSDWi9bxcd7wXEV2PWtraAFnhQhAJQthQyEQAIGJIQCVnJiuRkNBAAQKEYBKFsKGQiAAAhNDoDYqOTE9goaCAAhUiwBUslr9AW9AAASqRgAqWbUegT8gAALVIlCOStJXbmi3i6uNpePVaj+8AQEQAIHOBMpQSfUNxfmlortddG4GroIACIDAiAiUoJLBzrtzywgnR9SVMAsCIDASAuWoJCsj7cLLxyNpDoyCAAiAwJAJlKCSWWbE0e7CO49Ycsg9CHMgAAKjJVCKSvomBKtvn4wjEAABEKgqgVJVkvYqL/obilUFCL9AAATGnEApKml/9OZqAxI55qMJzQOBcSRQikqOIzi0CQRAYEIIQCUnpKPRTBAAgYIEoJIFwaEYCIDAhBCASk5IR6OZIAACBQlAJQuCQzEQAIEJIQCVnJCORjNBAAQKEoBKFgSHYiAAAhNCACo5IR2NZoIACBQkMBKVnFumrSTPLxwVp2wK9pcUIDgAARCoC4H/B80I+UOTK+0+AAAAAElFTkSuQmCC;" vertex="1" parent="1">
          <mxGeometry x="388" y="160" width="439" height="196" as="geometry" />
        </mxCell>
        <mxCell id="5XJhCrJHwZWSJV5f-XoP-9" value="" style="whiteSpace=wrap;html=1;rounded=1;arcSize=18;align=center;verticalAlign=middle;strokeWidth=3;autosize=1;spacing=4;treeFolding=1;treeMoving=1;newEdgeStyle={&quot;edgeStyle&quot;:&quot;entityRelationEdgeStyle&quot;,&quot;startArrow&quot;:&quot;none&quot;,&quot;endArrow&quot;:&quot;none&quot;,&quot;segment&quot;:10,&quot;curved&quot;:1,&quot;sourcePerimeterSpacing&quot;:0,&quot;targetPerimeterSpacing&quot;:0};fillColor=none;strokeColor=#FF8000;" vertex="1" parent="1">
          <mxGeometry x="439" y="222" width="321" height="53" as="geometry" />
        </mxCell>
        <mxCell id="5XJhCrJHwZWSJV5f-XoP-10" value="" style="edgeStyle=entityRelationEdgeStyle;startArrow=none;endArrow=none;segment=10;curved=1;sourcePerimeterSpacing=0;targetPerimeterSpacing=0;rounded=0;strokeColor=#FF8000;strokeWidth=3;" edge="1" parent="1" target="5XJhCrJHwZWSJV5f-XoP-9" source="5XJhCrJHwZWSJV5f-XoP-3">
          <mxGeometry relative="1" as="geometry">
            <mxPoint x="330" y="280" as="sourcePoint" />
          </mxGeometry>
        </mxCell>
        <mxCell id="5XJhCrJHwZWSJV5f-XoP-11" value="" style="whiteSpace=wrap;html=1;rounded=1;arcSize=18;align=center;verticalAlign=middle;strokeWidth=3;autosize=1;spacing=4;treeFolding=1;treeMoving=1;newEdgeStyle={&quot;edgeStyle&quot;:&quot;entityRelationEdgeStyle&quot;,&quot;startArrow&quot;:&quot;none&quot;,&quot;endArrow&quot;:&quot;none&quot;,&quot;segment&quot;:10,&quot;curved&quot;:1,&quot;sourcePerimeterSpacing&quot;:0,&quot;targetPerimeterSpacing&quot;:0};fillColor=none;strokeColor=#FF8000;" vertex="1" parent="1">
          <mxGeometry x="440" y="281" width="320" height="60" as="geometry" />
        </mxCell>
        <mxCell id="5XJhCrJHwZWSJV5f-XoP-12" value="" style="edgeStyle=entityRelationEdgeStyle;startArrow=none;endArrow=none;segment=10;curved=1;sourcePerimeterSpacing=0;targetPerimeterSpacing=0;rounded=0;strokeColor=#FF8000;strokeWidth=3;" edge="1" parent="1" target="5XJhCrJHwZWSJV5f-XoP-11" source="5XJhCrJHwZWSJV5f-XoP-1">
          <mxGeometry relative="1" as="geometry">
            <mxPoint x="318" y="270" as="sourcePoint" />
          </mxGeometry>
        </mxCell>
      </root>
    </mxGraphModel>
  </diagram>
</mxfile>
